<svg width="20" height="22" viewBox="0 0 20 22" fill="none" xmlns="http://www.w3.org/2000/svg">
<path d="M9.85379 1.63786H9.92122C12.8569 1.67421 15.2353 4.08083 15.2353 7.03462C15.2353 10.0112 12.8205 12.4322 9.85379 12.4322C6.8872 12.4321 4.47223 10.0112 4.47223 7.03504C4.47223 4.0585 6.8872 1.63786 9.85379 1.63786ZM9.85379 13.2942C13.2966 13.2942 16.0962 10.4858 16.0962 7.03462C16.0962 3.58344 13.2965 0.775 9.85379 0.775C6.41067 0.775 3.61094 3.58339 3.61094 7.03462C3.61094 10.4858 6.41062 13.2942 9.85379 13.2942Z" fill="black" stroke="black" stroke-width="0.45"/>
<path d="M0.775 21.0558V21.2808H1H18.7034H18.9284V21.0558V20.8497C18.9284 16.7142 14.8112 13.4254 9.85193 13.4254C4.89239 13.4254 0.775 16.7144 0.775 20.8497V21.0558ZM18.0491 20.4185H1.6539C1.9329 17.046 5.48156 14.2878 9.85193 14.2878C14.2222 14.2878 17.7704 17.046 18.0491 20.4185Z" fill="black" stroke="black" stroke-width="0.45"/>
</svg>
