<svg width="24" height="22" viewBox="0 0 24 22" fill="none" xmlns="http://www.w3.org/2000/svg">
<path d="M2.71694 11.9943C1.48961 10.7647 0.8 9.09669 0.8 7.3572C0.8 5.61771 1.4896 3.94957 2.71695 2.72013L2.71699 2.72009C3.94491 1.49072 5.60922 0.800005 7.34465 0.8L2.71694 11.9943ZM2.71694 11.9943L11.7546 21.0513C11.885 21.1823 12.062 21.2558 12.2466 21.2558C12.431 21.2558 12.608 21.1823 12.7383 21.0515L2.71694 11.9943ZM11.9723 2.71958C10.7444 1.49037 9.08007 0.799834 7.34467 0.8L12.7385 21.0513L21.1048 12.6695L21.1051 12.6692L21.7761 11.9942C23.0034 10.7648 23.693 9.0966 23.693 7.35712C23.693 5.80224 23.142 4.30448 22.1485 3.12592L22.186 3.13053L21.7767 2.72017C19.225 0.162208 15.0732 0.162222 12.5212 2.72016L12.247 2.9946L11.9724 2.71959L11.9723 2.71958ZM11.4743 3.81535L11.4745 3.81552L11.4745 3.81554C11.6796 4.0204 11.9572 4.13538 12.2468 4.13538C12.5363 4.13538 12.8139 4.02041 13.019 3.81553L13.0192 3.81538L13.318 3.51619L13.3184 3.51574C14.3334 2.49329 15.712 1.91784 17.1504 1.91583C18.5887 1.91395 19.9687 2.48579 20.9863 3.50559L21.1279 3.36433L20.9863 3.5056C22.0039 4.52527 22.5754 5.90927 22.5745 7.3521C22.5736 8.79492 22.0003 10.178 20.9815 11.1964L20.8601 11.3177L20.8605 11.3183L20.3093 11.871L20.3093 11.871L12.2469 19.9489L3.51352 11.1973C3.51331 11.1971 3.51311 11.1969 3.5129 11.1967C2.1633 9.82038 1.64319 7.8288 2.14733 5.96534L1.95478 5.91325L2.14733 5.96534C2.6515 4.10166 4.10398 2.64665 5.96232 2.14308C7.82059 1.63957 9.80565 2.1628 11.177 3.51763C11.1771 3.51778 11.1772 3.51793 11.1774 3.51808L11.4743 3.81535Z" fill="black" stroke="black" stroke-width="0.4"/>
</svg>
