<svg width="18" height="22" viewBox="0 0 18 22" fill="none" xmlns="http://www.w3.org/2000/svg">
<path d="M17.4669 20.7974C17.4848 20.654 17.4426 20.5099 17.3509 20.3989L13.9842 15.6077C17.3612 12.8834 18.0858 7.93614 15.5503 4.329C14.7136 3.13538 13.5778 2.18369 12.2575 1.57004C10.9372 0.956384 9.47905 0.702392 8.02982 0.833682C6.58051 0.96481 5.19119 1.47661 4.00186 2.31746L4.0017 2.31757C0.272161 4.95967 -0.616538 10.1603 2.01967 13.9108C2.64483 14.8058 3.44072 15.5678 4.36135 16.1528L4.36137 16.1528C5.28201 16.7376 6.30908 17.134 7.38326 17.3186C7.85685 17.4011 8.33649 17.4426 8.81701 17.4427H8.81707C10.343 17.4427 11.8371 17.0159 13.1322 16.2117L16.5026 21.0045C16.5768 21.1267 16.698 21.2135 16.8384 21.244L16.8386 21.244C16.9817 21.2749 17.1316 21.2443 17.2512 21.159C17.3708 21.074 17.4488 20.9427 17.4669 20.7974ZM7.60493 16.2946L7.60459 16.2944L7.5607 16.2869C6.62197 16.1256 5.72436 15.7795 4.91983 15.2683C4.11529 14.7571 3.41975 14.0911 2.8734 13.3086L2.87303 13.3081C0.566744 10.0279 1.34455 5.47975 4.60422 3.1707L4.60461 3.17042C5.81712 2.30707 7.26745 1.84356 8.75455 1.84427H8.75458C9.17518 1.84441 9.59483 1.88092 10.0092 1.95324L10.0097 1.95332C10.9484 2.11473 11.8459 2.46099 12.6505 2.97216C13.455 3.48338 14.1506 4.14927 14.6971 4.93156L14.6974 4.93204C17.0033 8.21227 16.2259 12.76 12.9666 15.0687L12.9188 15.1026C12.1552 15.6372 11.295 16.0176 10.3861 16.2224L10.3861 16.2224C9.47251 16.4285 8.52768 16.4529 7.60493 16.2946Z" fill="black" stroke="black" stroke-width="0.4"/>
</svg>
